<mxfile host="app.diagrams.net" agent="Mozilla/5.0 (Windows NT 10.0; Win64; x64) AppleWebKit/537.36 (KHTML, like Gecko) Chrome/128.0.0.0 Safari/537.36" version="24.7.12">
  <diagram name="Página-1" id="J4D8Aa72jO3KK7HtgWNN">
    <mxGraphModel dx="1781" dy="558" grid="1" gridSize="10" guides="1" tooltips="1" connect="1" arrows="1" fold="1" page="1" pageScale="1" pageWidth="827" pageHeight="1169" math="0" shadow="0">
      <root>
        <mxCell id="0" />
        <mxCell id="1" parent="0" />
        <mxCell id="AI5ySEerA5SNmeOlhprT-13" style="edgeStyle=orthogonalEdgeStyle;rounded=0;orthogonalLoop=1;jettySize=auto;html=1;entryX=1;entryY=0.5;entryDx=0;entryDy=0;" edge="1" parent="1" source="AI5ySEerA5SNmeOlhprT-1" target="AI5ySEerA5SNmeOlhprT-9">
          <mxGeometry relative="1" as="geometry" />
        </mxCell>
        <mxCell id="AI5ySEerA5SNmeOlhprT-1" value="" style="image;points=[];aspect=fixed;html=1;align=center;shadow=0;dashed=0;image=img/lib/allied_telesis/computer_and_terminals/Server_Desktop.svg;" vertex="1" parent="1">
          <mxGeometry x="460" y="250" width="71" height="90" as="geometry" />
        </mxCell>
        <mxCell id="AI5ySEerA5SNmeOlhprT-2" value="server.go" style="text;strokeColor=none;align=center;fillColor=none;html=1;verticalAlign=middle;whiteSpace=wrap;rounded=0;" vertex="1" parent="1">
          <mxGeometry x="410" y="240" width="60" height="30" as="geometry" />
        </mxCell>
        <mxCell id="AI5ySEerA5SNmeOlhprT-3" value="" style="sketch=0;aspect=fixed;pointerEvents=1;shadow=0;dashed=0;html=1;strokeColor=none;labelPosition=center;verticalLabelPosition=bottom;verticalAlign=top;align=center;fillColor=#00188D;shape=mxgraph.mscae.enterprise.client_application" vertex="1" parent="1">
          <mxGeometry x="580" y="380" width="50" height="32" as="geometry" />
        </mxCell>
        <mxCell id="AI5ySEerA5SNmeOlhprT-4" value="client.go" style="text;strokeColor=none;align=center;fillColor=none;html=1;verticalAlign=middle;whiteSpace=wrap;rounded=0;" vertex="1" parent="1">
          <mxGeometry x="575" y="412" width="60" height="30" as="geometry" />
        </mxCell>
        <mxCell id="AI5ySEerA5SNmeOlhprT-5" style="edgeStyle=orthogonalEdgeStyle;rounded=0;orthogonalLoop=1;jettySize=auto;html=1;entryX=0.5;entryY=0;entryDx=0;entryDy=0;entryPerimeter=0;" edge="1" parent="1" source="AI5ySEerA5SNmeOlhprT-1" target="AI5ySEerA5SNmeOlhprT-3">
          <mxGeometry relative="1" as="geometry" />
        </mxCell>
        <mxCell id="AI5ySEerA5SNmeOlhprT-6" style="edgeStyle=orthogonalEdgeStyle;rounded=0;orthogonalLoop=1;jettySize=auto;html=1;entryX=0.521;entryY=1;entryDx=0;entryDy=0;entryPerimeter=0;exitX=0.08;exitY=0.5;exitDx=0;exitDy=0;exitPerimeter=0;" edge="1" parent="1" source="AI5ySEerA5SNmeOlhprT-3" target="AI5ySEerA5SNmeOlhprT-1">
          <mxGeometry relative="1" as="geometry" />
        </mxCell>
        <mxCell id="AI5ySEerA5SNmeOlhprT-7" value="solicita via http cotação do dólar" style="text;strokeColor=none;align=center;fillColor=none;html=1;verticalAlign=middle;whiteSpace=wrap;rounded=0;" vertex="1" parent="1">
          <mxGeometry x="460" y="362" width="80" height="80" as="geometry" />
        </mxCell>
        <mxCell id="AI5ySEerA5SNmeOlhprT-8" value="valor atual&lt;div&gt;do câmbio&lt;/div&gt;&lt;div&gt;(bid)&lt;/div&gt;&lt;div&gt;timeout: 300ms&lt;/div&gt;" style="text;strokeColor=none;align=center;fillColor=none;html=1;verticalAlign=middle;whiteSpace=wrap;rounded=0;" vertex="1" parent="1">
          <mxGeometry x="600" y="280" width="100" height="70" as="geometry" />
        </mxCell>
        <mxCell id="AI5ySEerA5SNmeOlhprT-9" value="" style="image;aspect=fixed;perimeter=ellipsePerimeter;html=1;align=center;shadow=0;dashed=0;spacingTop=3;image=img/lib/active_directory/database.svg;" vertex="1" parent="1">
          <mxGeometry x="90" y="255" width="108.11" height="80" as="geometry" />
        </mxCell>
        <mxCell id="AI5ySEerA5SNmeOlhprT-14" value="SQLite" style="text;strokeColor=none;align=center;fillColor=none;html=1;verticalAlign=middle;whiteSpace=wrap;rounded=0;" vertex="1" parent="1">
          <mxGeometry x="114.06" y="320" width="60" height="30" as="geometry" />
        </mxCell>
        <mxCell id="AI5ySEerA5SNmeOlhprT-16" value="registrar cada&lt;div&gt;cotação recebida (timeout: 10ms)&lt;/div&gt;" style="text;strokeColor=none;align=center;fillColor=none;html=1;verticalAlign=middle;whiteSpace=wrap;rounded=0;" vertex="1" parent="1">
          <mxGeometry x="270" y="260" width="90" height="70" as="geometry" />
        </mxCell>
        <mxCell id="AI5ySEerA5SNmeOlhprT-17" value="" style="aspect=fixed;sketch=0;html=1;dashed=0;whitespace=wrap;verticalLabelPosition=bottom;verticalAlign=top;fillColor=#2875E2;strokeColor=#ffffff;points=[[0.005,0.63,0],[0.1,0.2,0],[0.9,0.2,0],[0.5,0,0],[0.995,0.63,0],[0.72,0.99,0],[0.5,1,0],[0.28,0.99,0]];shape=mxgraph.kubernetes.icon2;kubernetesLabel=1;prIcon=api" vertex="1" parent="1">
          <mxGeometry x="670" y="90" width="55" height="52.8" as="geometry" />
        </mxCell>
        <mxCell id="AI5ySEerA5SNmeOlhprT-18" style="edgeStyle=orthogonalEdgeStyle;rounded=0;orthogonalLoop=1;jettySize=auto;html=1;entryX=0.986;entryY=0;entryDx=0;entryDy=0;entryPerimeter=0;exitX=0.5;exitY=1;exitDx=0;exitDy=0;exitPerimeter=0;" edge="1" parent="1" source="AI5ySEerA5SNmeOlhprT-17" target="AI5ySEerA5SNmeOlhprT-1">
          <mxGeometry relative="1" as="geometry" />
        </mxCell>
        <mxCell id="AI5ySEerA5SNmeOlhprT-19" style="edgeStyle=orthogonalEdgeStyle;rounded=0;orthogonalLoop=1;jettySize=auto;html=1;entryX=0.5;entryY=0;entryDx=0;entryDy=0;entryPerimeter=0;" edge="1" parent="1" source="AI5ySEerA5SNmeOlhprT-1" target="AI5ySEerA5SNmeOlhprT-17">
          <mxGeometry relative="1" as="geometry">
            <Array as="points">
              <mxPoint x="496" y="70" />
              <mxPoint x="698" y="70" />
            </Array>
          </mxGeometry>
        </mxCell>
        <mxCell id="AI5ySEerA5SNmeOlhprT-20" value="https://economia.awesomeapi.com.br/json/last/USD-BRL&lt;div&gt;timeout: 200ms&lt;/div&gt;" style="text;strokeColor=none;align=center;fillColor=none;html=1;verticalAlign=middle;whiteSpace=wrap;rounded=0;" vertex="1" parent="1">
          <mxGeometry x="339.56" y="50" width="311.89" height="40" as="geometry" />
        </mxCell>
        <mxCell id="AI5ySEerA5SNmeOlhprT-21" value="cotação JSON" style="text;strokeColor=none;align=center;fillColor=none;html=1;verticalAlign=middle;whiteSpace=wrap;rounded=0;" vertex="1" parent="1">
          <mxGeometry x="690" y="180" width="60" height="30" as="geometry" />
        </mxCell>
        <mxCell id="AI5ySEerA5SNmeOlhprT-23" value="regras:&lt;div&gt;&lt;div&gt;Os 3 contextos deverão retornar erro nos logs caso o tempo de execução seja insuficiente.&lt;/div&gt;&lt;div&gt;&amp;nbsp;&lt;/div&gt;&lt;div&gt;O client.go terá que salvar a cotação atual em um arquivo &quot;cotacao.txt&quot; no formato: Dólar: {valor}&lt;/div&gt;&lt;div&gt;&amp;nbsp;&lt;/div&gt;&lt;div&gt;O endpoint necessário gerado pelo server.go para este desafio será: /cotacao e a porta a ser utilizada pelo servidor HTTP será a 8080.&lt;/div&gt;&lt;/div&gt;" style="text;strokeColor=none;align=center;fillColor=none;html=1;verticalAlign=middle;whiteSpace=wrap;rounded=0;" vertex="1" parent="1">
          <mxGeometry x="-70" y="380" width="530" height="150" as="geometry" />
        </mxCell>
      </root>
    </mxGraphModel>
  </diagram>
</mxfile>
